<?xml version="1.0" encoding="UTF-8"?>
<svg xmlns="http://www.w3.org/2000/svg"
     xmlns:xlink="http://www.w3.org/1999/xlink"
     xmlns:gadfly="http://www.gadflyjl.org/ns"
     version="1.2"
     width="152.4mm" height="152.4mm" viewBox="0 0 152.4 152.4"
     stroke="none"
     fill="#000000"
     stroke-width="0.3"
     font-size="3.88"
>
<g class="plotroot xscalable yscalable" id="fig-2ef6419d3272417dacc7e67f93183ffd-element-1">
  <g font-size="3.88" font-family="'PT Sans','Helvetica Neue','Helvetica',sans-serif" fill="#564A55" stroke="none" id="fig-2ef6419d3272417dacc7e67f93183ffd-element-2">
    <text x="80.88" y="144.4" text-anchor="middle">x</text>
  </g>
  <g class="guide xlabels" font-size="2.82" font-family="'PT Sans Caption','Helvetica Neue','Helvetica',sans-serif" fill="#6C606B" id="fig-2ef6419d3272417dacc7e67f93183ffd-element-3">
    <text x="16.37" y="136.79" text-anchor="middle">850</text>
    <text x="48.62" y="136.79" text-anchor="middle">900</text>
    <text x="80.88" y="136.79" text-anchor="middle">950</text>
    <text x="113.14" y="136.79" text-anchor="middle">1000</text>
    <text x="145.4" y="136.79" text-anchor="middle">1050</text>
  </g>
  <g clip-path="url(#fig-2ef6419d3272417dacc7e67f93183ffd-element-5)" id="fig-2ef6419d3272417dacc7e67f93183ffd-element-4">
    <g pointer-events="visible" opacity="1" fill="none" stroke="none" class="guide background" id="fig-2ef6419d3272417dacc7e67f93183ffd-element-6">
      <rect x="14.37" y="5" width="133.03" height="128.11"/>
    </g>
    <g class="guide ygridlines xfixed" stroke-dasharray="0.5,0.5" stroke-width="0.2" stroke="#D0D0E0" id="fig-2ef6419d3272417dacc7e67f93183ffd-element-7">
      <path fill="none" d="M14.37,131.12 L 147.4 131.12"/>
      <path fill="none" d="M14.37,106.29 L 147.4 106.29"/>
      <path fill="none" d="M14.37,81.47 L 147.4 81.47"/>
      <path fill="none" d="M14.37,56.65 L 147.4 56.65"/>
      <path fill="none" d="M14.37,31.82 L 147.4 31.82"/>
      <path fill="none" d="M14.37,7 L 147.4 7"/>
    </g>
    <g class="guide xgridlines yfixed" stroke-dasharray="0.5,0.5" stroke-width="0.2" stroke="#D0D0E0" id="fig-2ef6419d3272417dacc7e67f93183ffd-element-8">
      <path fill="none" d="M16.37,5 L 16.37 133.11"/>
      <path fill="none" d="M48.62,5 L 48.62 133.11"/>
      <path fill="none" d="M80.88,5 L 80.88 133.11"/>
      <path fill="none" d="M113.14,5 L 113.14 133.11"/>
      <path fill="none" d="M145.4,5 L 145.4 133.11"/>
    </g>
    <g class="plotpanel" id="fig-2ef6419d3272417dacc7e67f93183ffd-element-9">
      <g stroke-width="0.3" fill="none" class="geometry" stroke="#00BFFF" id="fig-2ef6419d3272417dacc7e67f93183ffd-element-10">
        <path fill="none" d="M22.26,131.11 L 22.59 131.11 22.93 131.11 23.27 131.11 23.61 131.11 23.95 131.11 24.29 131.11 24.62 131.11 24.96 131.11 25.3 131.11 25.64 131.1 25.98 131.1 26.31 131.09 26.65 131.09 26.99 131.08 27.33 131.07 27.67 131.05 28.01 131.04 28.34 131.02 28.68 130.99 29.02 130.97 29.36 130.94 29.7 130.9 30.04 130.87 30.37 130.83 30.71 130.8 31.05 130.77 31.39 130.73 31.73 130.7 32.06 130.68 32.4 130.66 32.74 130.65 33.08 130.64 33.42 130.64 33.76 130.64 34.09 130.65 34.43 130.67 34.77 130.68 35.11 130.7 35.45 130.71 35.78 130.72 36.12 130.72 36.46 130.71 36.8 130.69 37.14 130.65 37.48 130.6 37.81 130.53 38.15 130.45 38.49 130.34 38.83 130.22 39.17 130.08 39.51 129.93 39.84 129.77 40.18 129.6 40.52 129.43 40.86 129.26 41.2 129.09 41.53 128.94 41.87 128.8 42.21 128.67 42.55 128.57 42.89 128.49 43.23 128.43 43.56 128.4 43.9 128.38 44.24 128.39 44.58 128.41 44.92 128.44 45.25 128.48 45.59 128.52 45.93 128.56 46.27 128.59 46.61 128.61 46.95 128.62 47.28 128.61 47.62 128.58 47.96 128.53 48.3 128.46 48.64 128.36 48.97 128.25 49.31 128.11 49.65 127.94 49.99 127.76 50.33 127.55 50.67 127.33 51 127.08 51.34 126.82 51.68 126.54 52.02 126.24 52.36 125.92 52.7 125.59 53.03 125.25 53.37 124.89 53.71 124.53 54.05 124.16 54.39 123.79 54.72 123.41 55.06 123.05 55.4 122.69 55.74 122.34 56.08 122.01 56.42 121.7 56.75 121.41 57.09 121.14 57.43 120.88 57.77 120.64 58.11 120.42 58.44 120.21 58.78 120 59.12 119.8 59.46 119.6 59.8 119.4 60.14 119.19 60.47 118.97 60.81 118.75 61.15 118.51 61.49 118.26 61.83 118 62.17 117.72 62.5 117.43 62.84 117.12 63.18 116.79 63.52 116.44 63.86 116.07 64.19 115.67 64.53 115.25 64.87 114.8 65.21 114.31 65.55 113.8 65.89 113.25 66.22 112.66 66.56 112.03 66.9 111.37 67.24 110.66 67.58 109.9 67.91 109.1 68.25 108.25 68.59 107.35 68.93 106.4 69.27 105.41 69.61 104.37 69.94 103.29 70.28 102.17 70.62 101.02 70.96 99.85 71.3 98.67 71.64 97.48 71.97 96.29 72.31 95.11 72.65 93.95 72.99 92.82 73.33 91.72 73.66 90.66 74 89.63 74.34 88.65 74.68 87.68 75.02 86.74 75.36 85.8 75.69 84.84 76.03 83.84 76.37 82.79 76.71 81.66 77.05 80.43 77.38 79.08 77.72 77.6 78.06 76 78.4 74.26 78.74 72.39 79.08 70.43 79.41 68.37 79.75 66.26 80.09 64.11 80.43 61.97 80.77 59.86 81.1 57.81 81.44 55.84 81.78 53.98 82.12 52.23 82.46 50.61 82.8 49.12 83.13 47.75 83.47 46.51 83.81 45.39 84.15 44.37 84.49 43.45 84.83 42.63 85.16 41.88 85.5 41.21 85.84 40.6 86.18 40.04 86.52 39.53 86.85 39.06 87.19 38.61 87.53 38.18 87.87 37.77 88.21 37.35 88.55 36.93 88.88 36.49 89.22 36.04 89.56 35.58 89.9 35.09 90.24 34.59 90.57 34.08 90.91 33.56 91.25 33.03 91.59 32.5 91.93 31.99 92.27 31.5 92.6 31.05 92.94 30.65 93.28 30.31 93.62 30.07 93.96 29.93 94.3 29.92 94.63 30.05 94.97 30.33 95.31 30.78 95.65 31.42 95.99 32.23 96.32 33.21 96.66 34.37 97 35.68 97.34 37.12 97.68 38.67 98.02 40.3 98.35 41.99 98.69 43.7 99.03 45.42 99.37 47.11 99.71 48.76 100.04 50.36 100.38 51.89 100.72 53.36 101.06 54.75 101.4 56.09 101.74 57.37 102.07 58.61 102.41 59.82 102.75 61.03 103.09 62.24 103.43 63.49 103.76 64.78 104.1 66.14 104.44 67.59 104.78 69.13 105.12 70.78 105.46 72.55 105.79 74.45 106.13 76.47 106.47 78.61 106.81 80.87 107.15 83.22 107.49 85.67 107.82 88.19 108.16 90.76 108.5 93.35 108.84 95.96 109.18 98.56 109.51 101.12 109.85 103.62 110.19 106.06 110.53 108.41 110.87 110.65 111.21 112.79 111.54 114.8 111.88 116.69 112.22 118.45 112.56 120.07 112.9 121.55 113.23 122.89 113.57 124.11 113.91 125.19 114.25 126.15 114.59 126.99 114.93 127.73 115.26 128.35 115.6 128.89 115.94 129.34 116.28 129.71 116.62 130.02 116.96 130.27 117.29 130.47 117.63 130.63 117.97 130.75 118.31 130.85 118.65 130.92 118.98 130.98 119.32 131.02 119.66 131.05 120 131.07 120.34 131.08 120.68 131.09 121.01 131.1 121.35 131.11 121.69 131.11 122.03 131.11 122.37 131.11 122.7 131.11 123.04 131.11 123.38 131.11"/>
      </g>
    </g>
  </g>
  <g class="guide ylabels" font-size="2.82" font-family="'PT Sans Caption','Helvetica Neue','Helvetica',sans-serif" fill="#6C606B" id="fig-2ef6419d3272417dacc7e67f93183ffd-element-11">
    <text x="13.37" y="131.12" text-anchor="end" dy="0.35em">0.000</text>
    <text x="13.37" y="106.29" text-anchor="end" dy="0.35em">0.005</text>
    <text x="13.37" y="81.47" text-anchor="end" dy="0.35em">0.010</text>
    <text x="13.37" y="56.65" text-anchor="end" dy="0.35em">0.015</text>
    <text x="13.37" y="31.82" text-anchor="end" dy="0.35em">0.020</text>
    <text x="13.37" y="7" text-anchor="end" dy="0.35em">0.025</text>
  </g>
</g>
<defs>
<clipPath id="fig-2ef6419d3272417dacc7e67f93183ffd-element-5">
  <path d="M14.37,5 L 147.4 5 147.4 133.11 14.37 133.11" />
</clipPath
></defs>
</svg>
